Coordinates
nRows=477
nColumns=2
inDegrees=yes
endheader
time	ankle_angle_r	
3.59274	 18.733203	
3.62601	 18.717190	
3.65927	 18.714500	
3.69254	 18.720570	
3.72581	 18.723349	
3.75907	 18.721661	
3.79234	 18.720478	
3.8256	 18.720205	
3.85887	 18.721441	
3.89214	 18.726031	
3.9254	 18.730694	
3.95867	 18.732125	
3.99194	 18.731951	
4.0252	 18.730946	
4.05847	 18.728325	
4.09173	 18.724866	
4.125	 18.721764	
4.15827	 18.720194	
4.19153	 18.719755	
4.2248	 18.717939	
4.25806	 18.714116	
4.29133	 18.709795	
4.3246	 18.706332	
4.35786	 18.702967	
4.39113	 18.696211	
4.4244	 18.687515	
4.45766	 18.683939	
4.49093	 18.683548	
4.52419	 18.676664	
4.55746	 18.663470	
4.59073	 18.653195	
4.62399	 18.650162	
4.65726	 18.650327	
4.69052	 18.647533	
4.72379	 18.641887	
4.75706	 18.639082	
4.79032	 18.640787	
4.82359	 18.644760	
4.85685	 18.649603	
4.89012	 18.651574	
4.92339	 18.648343	
4.95665	 18.645931	
4.98992	 18.649832	
5.02319	 18.658278	
5.05645	 18.667603	
5.08972	 18.673537	
5.12298	 18.674553	
5.15625	 18.674763	
5.18952	 18.675415	
5.22278	 18.675590	
5.25605	 18.679179	
5.28931	 18.686104	
5.32258	 18.689213	
5.35585	 18.686202	
5.38911	 18.681131	
5.42238	 18.678292	
5.45565	 18.679875	
5.48891	 18.683711	
5.52218	 18.687006	
5.55544	 18.691156	
5.58871	 18.696540	
5.62198	 18.700904	
5.65524	 18.704625	
5.68851	 18.709786	
5.72177	 18.716800	
5.75504	 18.722981	
5.78831	 18.724923	
5.82157	 18.724602	
5.85484	 18.725664	
5.8881	 18.726989	
5.92137	 18.728932	
5.95464	 18.733906	
5.9879	 18.737551	
6.02117	 18.731774	
6.05444	 18.711994	
6.0877	 18.681556	
6.12097	 18.656299	
6.15423	 18.651077	
6.1875	 18.661996	
6.22077	 18.676907	
6.25403	 18.691297	
6.2873	 18.703678	
6.32056	 18.709624	
6.35383	 18.707589	
6.3871	 18.702343	
6.42036	 18.698673	
6.45363	 18.696549	
6.4869	 18.695572	
6.52016	 18.699982	
6.55343	 18.711457	
6.58669	 18.723421	
6.61996	 18.731407	
6.65323	 18.735741	
6.68649	 18.733873	
6.71976	 18.726117	
6.75302	 18.718531	
6.78629	 18.712345	
6.81956	 18.704275	
6.85282	 18.695816	
6.88609	 18.693242	
6.91935	 18.698496	
6.95262	 18.702653	
6.98589	 18.698101	
7.01915	 18.691536	
7.05242	 18.690635	
7.08569	 18.693336	
7.11895	 18.695774	
7.15222	 18.695610	
7.18548	 18.692627	
7.21875	 18.689012	
7.25202	 18.686559	
7.28528	 18.688226	
7.31855	 18.695218	
7.35181	 18.701478	
7.38508	 18.700468	
7.41835	 18.692050	
7.45161	 18.678963	
7.48488	 18.665718	
7.51815	 18.657522	
7.55141	 18.650639	
7.58468	 18.636601	
7.61794	 18.622037	
7.65121	 18.622616	
7.68448	 18.637697	
7.71774	 18.651822	
7.75101	 18.653217	
7.78427	 18.641516	
7.81754	 18.625733	
7.85081	 18.614621	
7.88407	 18.612378	
7.91734	 18.618855	
7.9506	 18.625103	
7.98387	 18.627088	
8.01714	 18.636046	
8.0504	 18.653185	
8.08367	 18.663386	
8.11694	 18.664296	
8.1502	 18.667300	
8.18347	 18.673923	
8.21673	 18.675482	
8.25	 18.667902	
8.28327	 18.655413	
8.31653	 18.642850	
8.3498	 18.632497	
8.38306	 18.629959	
8.41633	 18.639088	
8.4496	 18.652425	
8.48286	 18.662065	
8.51613	 18.666982	
8.5494	 18.665244	
8.58266	 18.656826	
8.61593	 18.646723	
8.64919	 18.640598	
8.68246	 18.642546	
8.71573	 18.650175	
8.74899	 18.659604	
8.78226	 18.674114	
8.81552	 18.690909	
8.84879	 18.696210	
8.88206	 18.685808	
8.91532	 18.670024	
8.94859	 18.661000	
8.98185	 18.665633	
9.01512	 18.678326	
9.04839	 18.683491	
9.08165	 18.675528	
9.11492	 18.664179	
9.14819	 18.658327	
9.18145	 18.659854	
9.21472	 18.666293	
9.24798	 18.669983	
9.28125	 18.667503	
9.31452	 18.667003	
9.34778	 18.674786	
9.38105	 18.686492	
9.41431	 18.695080	
9.44758	 18.697990	
9.48085	 18.700407	
9.51411	 18.708603	
9.54738	 18.718479	
9.58065	 18.722518	
9.61391	 18.720357	
9.64718	 18.715668	
9.68044	 18.711487	
9.71371	 18.707722	
9.74698	 18.703369	
9.78024	 18.699620	
9.81351	 18.696017	
9.84677	 18.692169	
9.88004	 18.691434	
9.91331	 18.693758	
9.94657	 18.694372	
9.97984	 18.691103	
10.0131	 18.685074	
10.0464	 18.680612	
10.0796	 18.682676	
10.1129	 18.688132	
10.1462	 18.690773	
10.1794	 18.691267	
10.2127	 18.690293	
10.246	 18.686051	
10.2792	 18.681424	
10.3125	 18.679600	
10.3458	 18.679617	
10.379	 18.679113	
10.4123	 18.674124	
10.4456	 18.665486	
10.4788	 18.661678	
10.5121	 18.663524	
10.5454	 18.663454	
10.5786	 18.661752	
10.6119	 18.661760	
10.6452	 18.659174	
10.6784	 18.648060	
10.7117	 18.626488	
10.745	 18.600636	
10.7782	 18.585798	
10.8115	 18.589584	
10.8448	 18.601226	
10.878	 18.608660	
10.9113	 18.612744	
10.9446	 18.619496	
10.9778	 18.628085	
11.0111	 18.633146	
11.0444	 18.636923	
11.0776	 18.646249	
11.1109	 18.660767	
11.1442	 18.675109	
11.1774	 18.683451	
11.2107	 18.681405	
11.244	 18.672942	
11.2772	 18.669204	
11.3105	 18.677203	
11.3437	 18.693215	
11.377	 18.704868	
11.4103	 18.702580	
11.4435	 18.689736	
11.4768	 18.676086	
11.5101	 18.665838	
11.5433	 18.658627	
11.5766	 18.655357	
11.6099	 18.654511	
11.6431	 18.650038	
11.6764	 18.638762	
11.7097	 18.624937	
11.7429	 18.618741	
11.7762	 18.626467	
11.8095	 18.643277	
11.8427	 18.662138	
11.876	 18.675714	
11.9093	 18.674520	
11.9425	 18.663082	
11.9758	 18.658372	
12.0091	 18.663852	
12.0423	 18.671941	
12.0756	 18.682203	
12.1089	 18.694116	
12.1421	 18.699688	
12.1754	 18.693579	
12.2087	 18.681629	
12.2419	 18.673455	
12.2752	 18.666287	
12.3085	 18.651191	
12.3417	 18.631969	
12.375	 18.620584	
12.4083	 18.623399	
12.4415	 18.637850	
12.4748	 18.655156	
12.5081	 18.669188	
12.5413	 18.681314	
12.5746	 18.693078	
12.6079	 18.702868	
12.6411	 18.708651	
12.6744	 18.707550	
12.7077	 18.699827	
12.7409	 18.691095	
12.7742	 18.685162	
12.8075	 18.682667	
12.8407	 18.683347	
12.874	 18.683794	
12.9073	 18.683325	
12.9405	 18.687027	
12.9738	 18.693635	
13.0071	 18.696747	
13.0403	 18.697593	
13.0736	 18.698979	
13.1069	 18.697998	
13.1401	 18.693797	
13.1734	 18.689113	
13.2067	 18.686050	
13.2399	 18.685889	
13.2732	 18.686817	
13.3065	 18.687120	
13.3397	 18.690124	
13.373	 18.693860	
13.4062	 18.685404	
13.4395	 18.657216	
13.4728	 18.619930	
13.506	 18.593222	
13.5393	 18.588675	
13.5726	 18.603360	
13.6058	 18.627971	
13.6391	 18.654783	
13.6724	 18.675068	
13.7056	 18.683168	
13.7389	 18.684857	
13.7722	 18.686882	
13.8054	 18.687218	
13.8387	 18.682331	
13.872	 18.672422	
13.9052	 18.661263	
13.9385	 18.652777	
13.9718	 18.645943	
14.005	 18.640375	
14.0383	 18.641403	
14.0716	 18.651869	
14.1048	 18.667171	
14.1381	 18.680162	
14.1714	 18.688411	
14.2046	 18.694137	
14.2379	 18.697953	
14.2712	 18.700488	
14.3044	 18.700748	
14.3377	 18.690230	
14.371	 18.667574	
14.4042	 18.650643	
14.4375	 18.653591	
14.4708	 18.668482	
14.504	 18.683358	
14.5373	 18.695797	
14.5706	 18.705216	
14.6038	 18.711155	
14.6371	 18.713548	
14.6704	 18.711339	
14.7036	 18.707585	
14.7369	 18.707023	
14.7702	 18.709754	
14.8034	 18.714312	
14.8367	 18.719262	
14.87	 18.721761	
14.9032	 18.720220	
14.9365	 18.716026	
14.9698	 18.713387	
15.003	 18.715181	
15.0363	 18.716530	
15.0696	 18.712658	
15.1028	 18.708180	
15.1361	 18.706753	
15.1694	 18.705157	
15.2026	 18.702069	
15.2359	 18.699056	
15.2692	 18.696220	
15.3024	 18.692778	
15.3357	 18.688798	
15.369	 18.687431	
15.4022	 18.690999	
15.4355	 18.693941	
15.4687	 18.691064	
15.502	 18.686730	
15.5353	 18.685167	
15.5685	 18.684473	
15.6018	 18.683123	
15.6351	 18.679480	
15.6683	 18.669366	
15.7016	 18.651955	
15.7349	 18.632384	
15.7681	 18.618779	
15.8014	 18.617802	
15.8347	 18.625859	
15.8679	 18.633304	
15.9012	 18.639859	
15.9345	 18.645424	
15.9677	 18.640434	
16.001	 18.627141	
16.0343	 18.624312	
16.0675	 18.640744	
16.1008	 18.662744	
16.1341	 18.670356	
16.1673	 18.662172	
16.2006	 18.654507	
16.2339	 18.654439	
16.2671	 18.654608	
16.3004	 18.649098	
16.3337	 18.636391	
16.3669	 18.622999	
16.4002	 18.621449	
16.4335	 18.629894	
16.4667	 18.634344	
16.5	 18.631771	
16.5333	 18.633107	
16.5665	 18.647395	
16.5998	 18.664994	
16.6331	 18.667448	
16.6663	 18.656831	
16.6996	 18.646450	
16.7329	 18.638546	
16.7661	 18.639431	
16.7994	 18.661026	
16.8327	 18.696152	
16.8659	 18.723717	
16.8992	 18.733323	
16.9325	 18.729982	
16.9657	 18.724879	
16.999	 18.724508	
17.0323	 18.726368	
17.0655	 18.728251	
17.0988	 18.732478	
17.1321	 18.738405	
17.1653	 18.742783	
17.1986	 18.743215	
17.2319	 18.738619	
17.2651	 18.733767	
17.2984	 18.733800	
17.3317	 18.735801	
17.3649	 18.737010	
17.3982	 18.738295	
17.4315	 18.738486	
17.4647	 18.737822	
17.498	 18.737485	
17.5312	 18.735182	
17.5645	 18.732079	
17.5978	 18.732490	
17.631	 18.733298	
17.6643	 18.728811	
17.6976	 18.720000	
17.7308	 18.710524	
17.7641	 18.703482	
17.7974	 18.699531	
17.8306	 18.695381	
17.8639	 18.689325	
17.8972	 18.681526	
17.9304	 18.672642	
17.9637	 18.662692	
17.997	 18.645046	
18.0302	 18.619656	
18.0635	 18.604762	
18.0968	 18.613408	
18.13	 18.635616	
18.1633	 18.648888	
18.1966	 18.638845	
18.2298	 18.615896	
18.2631	 18.601468	
18.2964	 18.601975	
18.3296	 18.612929	
18.3629	 18.629589	
18.3962	 18.644611	
18.4294	 18.654107	
18.4627	 18.660802	
18.496	 18.661981	
18.5292	 18.653640	
18.5625	 18.643044	
18.5958	 18.636106	
18.629	 18.631813	
18.6623	 18.632528	
18.6956	 18.635319	
18.7288	 18.631358	
18.7621	 18.623875	
18.7954	 18.621277	
18.8286	 18.620891	
18.8619	 18.616975	
18.8952	 18.611401	
18.9284	 18.612037	
18.9617	 18.624405	
18.995	 18.641358	
19.0282	 18.650893	
19.0615	 18.654013	
19.0948	 18.658698	
19.128	 18.666804	
19.1613	 18.676947	
19.1946	 18.687236	
19.2278	 18.695378	
19.2611	 18.700394	
19.2944	 18.703526	
19.3276	 18.708739	
19.3609	 18.714347	
19.3942	 18.708299	
19.4274	 18.686344	
